<?xml version="1.0" encoding="utf-8"?>
<!-- Generator: Adobe Illustrator 21.1.0, SVG Export Plug-In . SVG Version: 6.00 Build 0)  -->
<svg version="1.1" id="레이어_1" xmlns="http://www.w3.org/2000/svg" xmlns:xlink="http://www.w3.org/1999/xlink" x="0px"
	 y="0px" viewBox="0 0 100.2 158.6" style="enable-background:new 0 0 100.2 158.6;" xml:space="preserve">
<style type="text/css">
	.st0{fill:#517AF8;}
	.st1{fill:#5E96F5;}
	.st2{fill:#FFFFFF;}
</style>
<g>
	
		<rect x="58.6" y="2.9" transform="matrix(0.9242 0.3818 -0.3818 0.9242 20.1196 -25.0539)" class="st0" width="29.3" height="70.5"/>
	
		<rect x="12.4" y="2.9" transform="matrix(-0.9242 0.3818 -0.3818 -0.9242 66.5717 63.1355)" class="st1" width="29.3" height="70.5"/>
	<g>
		<circle class="st1" cx="50.1" cy="111.1" r="45.3"/>
		<path class="st2" d="M50.1,158.6c-26.2,0-47.5-21.3-47.5-47.5s21.3-47.5,47.5-47.5s47.5,21.3,47.5,47.5S76.3,158.6,50.1,158.6z
			 M50.1,68C26.3,68,7,87.3,7,111.1s19.4,43.1,43.1,43.1s43.1-19.4,43.1-43.1S73.9,68,50.1,68z"/>
	</g>
	<g>
		<path class="st2" d="M24.8,106c0.2,0,0.5,0.1,0.7,0.2c0.2,0.1,0.4,0.4,0.5,0.7l1.9,7l1.9-7.2c0.1-0.3,0.2-0.4,0.4-0.5
			c0.2-0.1,0.4-0.1,0.7-0.1c0.3,0,0.4,0.2,0.6,0.4c0.1,0.2,0.1,0.4,0.1,0.7l-2.4,8.8c-0.1,0.3-0.2,0.6-0.5,0.7s-0.4,0.2-0.7,0.2
			s-0.5-0.1-0.7-0.2s-0.4-0.4-0.5-0.7l-1.9-7.3l-2,7.3c-0.1,0.3-0.2,0.6-0.5,0.7c-0.2,0.1-0.4,0.2-0.7,0.2c-0.2,0-0.5-0.1-0.7-0.2
			s-0.4-0.4-0.5-0.7l-2.4-8.6c-0.1-0.3-0.1-0.5,0.1-0.7c0.1-0.2,0.3-0.3,0.6-0.4c0.2-0.1,0.5-0.1,0.7,0s0.4,0.3,0.5,0.6l1.8,7.3
			l1.9-7c0.1-0.3,0.2-0.6,0.5-0.7C24.3,106,24.6,106,24.8,106z"/>
		<path class="st2" d="M36.1,108.5c0.5,0,1,0.1,1.5,0.2c0.4,0.2,0.8,0.4,1.1,0.7c0.3,0.3,0.6,0.7,0.7,1.1c0.2,0.4,0.3,0.9,0.3,1.5v0
			c0,0.5-0.1,0.8-0.3,1c-0.2,0.2-0.5,0.3-1,0.3h-4.2v0c0,0.5,0.2,1,0.5,1.3c0.3,0.3,0.8,0.5,1.5,0.5c0.4,0,0.8,0,1.1-0.1
			c0.3-0.1,0.6-0.2,1-0.3c0.2-0.1,0.4-0.1,0.6,0c0.2,0.1,0.3,0.2,0.4,0.4c0.1,0.2,0.1,0.4,0.1,0.6c0,0.2-0.2,0.3-0.4,0.4
			c-0.4,0.2-0.8,0.3-1.2,0.4c-0.4,0.1-1,0.1-1.6,0.1c-1.2,0-2.1-0.3-2.8-1c-0.7-0.6-1-1.6-1-2.9v-0.4c0-1.3,0.3-2.3,1-2.9
			C34,108.9,34.9,108.5,36.1,108.5z M36,110.1c-0.6,0-1.1,0.2-1.4,0.5c-0.3,0.3-0.5,0.7-0.5,1.2v0.1h3.7v-0.1c0-0.5-0.1-0.9-0.4-1.2
			C37.1,110.2,36.7,110.1,36,110.1z"/>
		<path class="st2" d="M42.3,105.6c0.2,0,0.5,0.1,0.7,0.2c0.2,0.1,0.3,0.3,0.3,0.6v9.5c0,0.3-0.1,0.5-0.3,0.6
			c-0.2,0.1-0.4,0.2-0.7,0.2c-0.2,0-0.5-0.1-0.7-0.2c-0.2-0.1-0.3-0.3-0.3-0.6v-9.5c0-0.3,0.1-0.5,0.3-0.6
			C41.9,105.7,42.1,105.6,42.3,105.6z"/>
		<path class="st2" d="M48.8,108.5c0.6,0,1.1,0.1,1.5,0.2c0.4,0.1,0.8,0.3,1,0.5c0.2,0.1,0.3,0.3,0.3,0.5c0,0.2,0,0.4-0.2,0.6
			c-0.1,0.2-0.3,0.3-0.5,0.3c-0.2,0.1-0.4,0-0.6-0.1c-0.5-0.3-1-0.4-1.7-0.4c-0.6,0-1.1,0.2-1.4,0.6c-0.3,0.4-0.5,0.9-0.5,1.7v0.4
			c0,0.7,0.2,1.3,0.5,1.7c0.3,0.4,0.8,0.6,1.4,0.6c0.7,0,1.3-0.1,1.8-0.4c0.2-0.1,0.4-0.1,0.6-0.1c0.2,0,0.4,0.2,0.5,0.4
			c0.1,0.2,0.2,0.4,0.1,0.6c0,0.2-0.1,0.4-0.3,0.5c-0.3,0.2-0.7,0.4-1.1,0.5c-0.5,0.1-1,0.2-1.5,0.2c-1.2,0-2.1-0.3-2.7-1
			c-0.7-0.6-1-1.6-1-2.9v-0.4c0-1.3,0.3-2.3,1-2.9C46.7,108.9,47.6,108.5,48.8,108.5z"/>
		<path class="st2" d="M56.7,108.5c1.2,0,2.1,0.3,2.8,1c0.7,0.7,1,1.6,1,2.9v0.4c0,1.3-0.3,2.3-1,2.9c-0.7,0.7-1.6,1-2.8,1
			s-2.1-0.3-2.8-1c-0.7-0.7-1-1.6-1-2.9v-0.4c0-1.3,0.3-2.3,1-2.9C54.6,108.9,55.5,108.5,56.7,108.5z M56.7,110.2
			c-0.7,0-1.2,0.2-1.5,0.5c-0.3,0.4-0.5,0.9-0.5,1.8v0.3c0,0.8,0.2,1.4,0.5,1.8s0.8,0.5,1.5,0.5s1.2-0.2,1.5-0.5s0.5-0.9,0.5-1.8
			v-0.3c0-0.8-0.2-1.4-0.5-1.8C57.9,110.4,57.4,110.2,56.7,110.2z"/>
		<path class="st2" d="M66.4,108.5c0.5,0,1,0.1,1.4,0.3c0.4,0.2,0.7,0.5,0.8,0.9c0.3-0.4,0.6-0.7,1-0.9c0.4-0.2,0.9-0.3,1.5-0.3
			c0.4,0,0.7,0.1,1.1,0.2c0.3,0.1,0.6,0.3,0.9,0.6c0.3,0.3,0.5,0.6,0.6,1c0.2,0.4,0.2,0.8,0.2,1.3v4.3c0,0.3-0.1,0.5-0.3,0.6
			c-0.2,0.1-0.4,0.2-0.7,0.2c-0.2,0-0.5-0.1-0.6-0.2c-0.2-0.1-0.3-0.3-0.3-0.6V112c0-0.4,0-0.7-0.1-0.9c-0.1-0.2-0.2-0.4-0.3-0.6
			c-0.1-0.1-0.3-0.2-0.5-0.3c-0.2,0-0.4-0.1-0.6-0.1c-0.2,0-0.4,0-0.5,0.1c-0.2,0.1-0.3,0.1-0.5,0.3c-0.1,0.1-0.3,0.3-0.3,0.5
			c-0.1,0.2-0.1,0.5-0.1,0.8v3.9c0,0.3-0.1,0.5-0.3,0.6c-0.2,0.1-0.4,0.2-0.7,0.2c-0.2,0-0.5-0.1-0.6-0.2c-0.2-0.1-0.3-0.3-0.3-0.6
			V112c0-0.3,0-0.6-0.1-0.9c-0.1-0.2-0.2-0.4-0.3-0.5c-0.1-0.1-0.3-0.2-0.5-0.3c-0.2-0.1-0.4-0.1-0.6-0.1c-0.4,0-0.8,0.1-1.1,0.4
			c-0.3,0.3-0.4,0.7-0.4,1.3v4c0,0.3-0.1,0.5-0.3,0.6c-0.2,0.1-0.4,0.2-0.7,0.2c-0.2,0-0.5-0.1-0.6-0.2c-0.2-0.1-0.3-0.3-0.3-0.6
			v-6.5c0-0.3,0.1-0.4,0.3-0.6c0.2-0.1,0.4-0.2,0.6-0.2c0.2,0,0.4,0.1,0.6,0.2c0.2,0.1,0.3,0.3,0.3,0.6v0.4c0.2-0.4,0.5-0.7,0.9-0.9
			C65.4,108.7,65.8,108.5,66.4,108.5z"/>
		<path class="st2" d="M79.3,108.5c0.5,0,1,0.1,1.5,0.2c0.4,0.2,0.8,0.4,1.1,0.7c0.3,0.3,0.6,0.7,0.7,1.1c0.2,0.4,0.3,0.9,0.3,1.5v0
			c0,0.5-0.1,0.8-0.3,1c-0.2,0.2-0.5,0.3-1,0.3h-4.2v0c0,0.5,0.2,1,0.5,1.3c0.3,0.3,0.8,0.5,1.5,0.5c0.4,0,0.8,0,1.1-0.1
			c0.3-0.1,0.6-0.2,1-0.3c0.2-0.1,0.4-0.1,0.6,0c0.2,0.1,0.3,0.2,0.4,0.4c0.1,0.2,0.1,0.4,0.1,0.6c0,0.2-0.2,0.3-0.4,0.4
			c-0.4,0.2-0.8,0.3-1.2,0.4c-0.4,0.1-1,0.1-1.6,0.1c-1.2,0-2.1-0.3-2.8-1c-0.7-0.6-1-1.6-1-2.9v-0.4c0-1.3,0.3-2.3,1-2.9
			C77.3,108.9,78.2,108.5,79.3,108.5z M79.3,110.1c-0.6,0-1.1,0.2-1.4,0.5c-0.3,0.3-0.5,0.7-0.5,1.2v0.1h3.7v-0.1
			c0-0.5-0.1-0.9-0.4-1.2C80.4,110.2,80,110.1,79.3,110.1z"/>
	</g>
</g>
</svg>
