<svg xmlns="http://www.w3.org/2000/svg" width="688" height="256" viewBox="0 0 688 256">
    <g fill="none" fill-rule="evenodd">
        <g fill="#fff">
            <path d="M137.343 20c.452 0 .897.102 1.302.298l.2.105 82.554 47.794c.33.191.548.527.593.901l.008.142v13.324c0 .383-.181.74-.482.966l-.119.078-168.322 97.474 78.1 45.219 78.11-45.219-67.453-39.056 12.713-7.363L221.4 173.37c.33.191.548.527.593.901l.008.142v13.336c0 .382-.181.74-.482.965l-.119.078-82.565 47.804c-.392.226-.828.36-1.277.395l-.225.008h-12.3c-.452 0-.897-.102-1.303-.298l-.199-.105-80.181-46.421c-.394-.228-.73-.542-.983-.917l-.12-.192-7.84-13.699c-.224-.39-.357-.826-.39-1.274l-.009-.225L34 80.39c0-.447.1-.888.29-1.292l.103-.198 5.434-9.568c.226-.399.54-.74.915-.996l.193-.122 82.574-47.81c.39-.227.827-.362 1.276-.396l.225-.008h12.333zm217.634 129.624l.709.004c5.167.066 9.789.856 13.865 2.37 4.261 1.581 7.897 3.729 10.909 6.441 3.01 2.712 5.312 5.933 6.903 9.663 1.59 3.729 2.386 7.797 2.386 12.205 0 4.407-.795 8.476-2.386 12.205-1.591 3.73-3.892 6.95-6.903 9.663-3.012 2.712-6.648 4.86-10.91 6.442-4.075 1.513-8.697 2.303-13.864 2.368l-.709.005h-22.499l-.708-.005c-5.167-.065-9.79-.855-13.865-2.368-4.261-1.583-7.898-3.73-10.909-6.442-3.011-2.712-5.312-5.933-6.903-9.663-1.591-3.73-2.386-7.798-2.386-12.205 0-4.408.795-8.476 2.386-12.205 1.59-3.73 3.892-6.95 6.903-9.663 3.011-2.712 6.648-4.86 10.909-6.442 4.076-1.513 8.698-2.303 13.865-2.369l.708-.004h22.5zm280.798 1.695l.187.009c.432.039.83.214 1.193.527l.154.142 7.67 8.137.107.117c.236.284.368.635.398 1.055l.006.184v42.72l-.006.165c-.056.754-.503 1.248-1.342 1.483l-.186.046-14.829 3.39-.148.03c-.388.056-.707-.067-.96-.368-.248-.297-.388-.68-.42-1.15l-.006-.207v-40.176h-72.782l-.184-.004c-.954-.05-1.459-.502-1.515-1.356l-.005-.165v-13.053l.005-.165c.056-.854.561-1.306 1.515-1.356l.184-.005h80.964zm-100.11-25.258l.184.005c.954.05 1.459.502 1.515 1.356l.005.165v13.052l-.005.165c-.056.854-.561 1.306-1.515 1.356l-.185.005h-33.919v16.444h6.136l.188.008c.432.039.83.215 1.193.527l.153.143 7.67 8.136.108.118c.236.283.368.635.398 1.054l.006.185v33.734l-.006.165c-.056.754-.503 1.249-1.342 1.484l-.186.046-14.83 3.39-.148.03c-.387.056-.707-.067-.96-.369-.248-.296-.388-.68-.419-1.15l-.006-.206v-31.191h-78.918l-.184-.005c-.954-.05-1.46-.502-1.515-1.356l-.006-.165v-13.053l.006-.165c.056-.854.56-1.306 1.515-1.356l.184-.004h14.147v-16.444h-33.92l-.183-.005c-.954-.05-1.46-.502-1.515-1.356l-.006-.165v-13.052l.006-.165c.056-.854.56-1.306 1.515-1.356l.184-.005h134.654zM355.83 165.728h-24.204l-.468.005c-4.339.088-7.99 1.415-10.952 3.979-3.068 2.656-4.602 6.187-4.602 10.595 0 4.407 1.534 7.94 4.602 10.595 2.962 2.564 6.613 3.89 10.952 3.979l.468.005h24.204c4.545 0 8.352-1.328 11.42-3.984 3.068-2.656 4.602-6.188 4.602-10.595 0-4.408-1.534-7.94-4.602-10.595-2.962-2.564-6.613-3.89-10.953-3.979l-.467-.005zM131.177 30.688L46.72 79.595v90.449l162.567-94.135-78.11-45.22zm353.182 111.477h-32.044v16.444h32.044v-16.444zm-96.144-85.268l.166.005c.858.056 1.313.558 1.363 1.507l.005.183v80.013l-.006.166c-.056.754-.503 1.248-1.342 1.483l-.186.046-14.829 3.39-.148.03c-.388.056-.707-.067-.96-.368-.249-.297-.388-.68-.42-1.15l-.006-.206v-34.921h-26.079l-.184-.005c-.954-.05-1.459-.502-1.515-1.356l-.005-.165V92.496l.005-.165c.056-.854.561-1.306 1.515-1.356l.184-.005h26.079V58.592l.005-.183c.05-.949.505-1.45 1.363-1.507l.166-.005h14.829zm255.741 0l.166.005c.858.056 1.313.558 1.363 1.507l.005.183v26.276h22.5l.184.004c.953.05 1.459.503 1.515 1.357l.005.164v13.053l-.005.165c-.056.854-.562 1.306-1.515 1.356l-.185.005H645.49v36.786l-.006.165c-.056.754-.503 1.249-1.342 1.484l-.186.046-14.829 3.39-.148.03c-.388.055-.707-.067-.96-.369-.248-.296-.388-.68-.42-1.15l-.006-.206V58.592l.005-.183c.05-.949.505-1.45 1.363-1.507l.166-.005h14.83zM347.99 63.508l.184.005c.954.05 1.46.502 1.515 1.356l.006.165v13.053l-.006.165c-.056.854-.56 1.306-1.515 1.356l-.184.005h-27.783v12.883l-.002.653c-.023 3.449-.225 6.362-.606 8.74l-.074.44 32.044 24.749.14.097c.847.619.95 1.283.309 1.994l-.108.113-8.693 10.51-.096.125c-.522.63-1.178.68-1.97.15l-.15-.106-29.146-22.037-.375.397c-2.918 3.06-6.827 6.43-11.727 10.113l-.978.73-1.017.748-1.597 1.157-1.685 1.2-1.17.822-1.83 1.268-1.916 1.31-2.003 1.352-1.383.924-1.423.943-2.205 1.45-2.293 1.49-.783.507c-.856.532-1.56.513-2.114-.057l-.102-.113-8.693-10.51-.108-.113c-.641-.71-.538-1.375.309-1.994l3.586-2.542 1.956-1.398 1.87-1.346 2.363-1.714 1.674-1.225 1.589-1.174 1.987-1.483 1.391-1.053 1.308-1 .824-.639 1.003-.786.486-.387.942-.762.902-.744.435-.366.841-.719c2.19-1.893 3.949-3.605 5.277-5.135 2.16-2.487 3.494-4.775 4.006-6.866.477-1.951.732-4.32.763-7.109l.004-.604V79.613h-27.783l-.184-.005c-.954-.05-1.46-.502-1.516-1.356l-.005-.165V65.034l.005-.165c.057-.854.562-1.306 1.516-1.356l.184-.005h73.804zm243.64 0l.187.009c.432.039.83.215 1.193.527l.153.142 7.67 8.137.108.118c.235.283.368.634.398 1.054l.006.184v56.111l-.006.166c-.056.754-.504 1.248-1.342 1.483l-.186.046-14.83 3.39-.148.03c-.387.056-.707-.067-.96-.368-.248-.297-.388-.68-.419-1.15l-.006-.206V79.613h-49.09l-.184-.005c-.954-.05-1.459-.502-1.515-1.356l-.005-.165V65.034l.005-.165c.056-.854.561-1.306 1.515-1.356l.184-.005h57.271zm-111.19-5.255l.74.005c5.155.064 9.766.797 13.833 2.199 4.262 1.47 7.87 3.503 10.824 6.103 2.954 2.599 5.199 5.65 6.733 9.154 1.534 3.503 2.3 7.346 2.3 11.527 0 4.181-.766 8.024-2.3 11.527-1.534 3.504-3.779 6.555-6.733 9.154-2.955 2.6-6.562 4.634-10.824 6.103-4.067 1.402-8.678 2.135-13.833 2.2l-.74.004h-24.204l-.74-.005c-5.154-.064-9.766-.797-13.833-2.199-4.261-1.47-7.87-3.503-10.824-6.103-2.954-2.599-5.198-5.65-6.732-9.154-1.534-3.503-2.301-7.346-2.301-11.527 0-4.181.767-8.024 2.3-11.527 1.535-3.504 3.779-6.555 6.733-9.154 2.955-2.6 6.563-4.634 10.824-6.103 4.067-1.402 8.679-2.135 13.833-2.2l.74-.004h24.204zm.852 16.105h-25.908l-.484.004c-4.328.08-7.917 1.237-10.766 3.47-2.954 2.317-4.431 5.454-4.431 9.409 0 3.955 1.477 7.092 4.431 9.408 2.85 2.234 6.438 3.391 10.766 3.471l.484.004h25.908c4.546 0 8.295-1.158 11.25-3.475 2.954-2.316 4.432-5.453 4.432-9.408 0-3.955-1.478-7.092-4.432-9.408-2.849-2.234-6.438-3.391-10.766-3.471l-.484-.004z"/>
        </g>
    </g>
</svg>
